<svg xmlns="http://www.w3.org/2000/svg" viewBox="0 0 26 35" width="26" height="35" shape-rendering="crispEdges">
<rect x="18" y="0" width="1" height="1" fill="#122900"/>
<rect x="19" y="0" width="1" height="1" fill="#122900"/>
<rect x="20" y="0" width="1" height="1" fill="#122900"/>
<rect x="21" y="0" width="1" height="1" fill="#122900"/>
<rect x="11" y="1" width="1" height="1" fill="#0f2900"/>
<rect x="12" y="1" width="1" height="1" fill="#0f2900"/>
<rect x="13" y="1" width="1" height="1" fill="#0f2900"/>
<rect x="16" y="1" width="1" height="1" fill="#0f2900"/>
<rect x="17" y="1" width="1" height="1" fill="#0e4b00"/>
<rect x="18" y="1" width="1" height="1" fill="#5da500"/>
<rect x="19" y="1" width="1" height="1" fill="#5fa700"/>
<rect x="20" y="1" width="1" height="1" fill="#569c00"/>
<rect x="21" y="1" width="1" height="1" fill="#3c7700"/>
<rect x="22" y="1" width="1" height="1" fill="#0f2900"/>
<rect x="10" y="2" width="1" height="1" fill="#0f2900"/>
<rect x="11" y="2" width="1" height="1" fill="#3c7d00"/>
<rect x="12" y="2" width="1" height="1" fill="#438400"/>
<rect x="13" y="2" width="1" height="1" fill="#2c6100"/>
<rect x="14" y="2" width="1" height="1" fill="#0f2900"/>
<rect x="15" y="2" width="1" height="1" fill="#0f2900"/>
<rect x="16" y="2" width="1" height="1" fill="#175200"/>
<rect x="17" y="2" width="1" height="1" fill="#459600"/>
<rect x="18" y="2" width="1" height="1" fill="#82e000"/>
<rect x="19" y="2" width="1" height="1" fill="#81de00"/>
<rect x="20" y="2" width="1" height="1" fill="#76d000"/>
<rect x="21" y="2" width="1" height="1" fill="#498f00"/>
<rect x="22" y="2" width="1" height="1" fill="#0f2900"/>
<rect x="9" y="3" width="1" height="1" fill="#0f2900"/>
<rect x="10" y="3" width="1" height="1" fill="#0f3a00"/>
<rect x="11" y="3" width="1" height="1" fill="#74d000"/>
<rect x="12" y="3" width="1" height="1" fill="#85e400"/>
<rect x="13" y="3" width="1" height="1" fill="#4c9200"/>
<rect x="14" y="3" width="1" height="1" fill="#0f2900"/>
<rect x="15" y="3" width="1" height="1" fill="#0f2900"/>
<rect x="16" y="3" width="1" height="1" fill="#2b7b00"/>
<rect x="17" y="3" width="1" height="1" fill="#74d200"/>
<rect x="18" y="3" width="1" height="1" fill="#7fdd00"/>
<rect x="19" y="3" width="1" height="1" fill="#72cc00"/>
<rect x="20" y="3" width="1" height="1" fill="#479d00"/>
<rect x="21" y="3" width="1" height="1" fill="#2e7400"/>
<rect x="22" y="3" width="1" height="1" fill="#0f2900"/>
<rect x="9" y="4" width="1" height="1" fill="#0f2900"/>
<rect x="10" y="4" width="1" height="1" fill="#0f3900"/>
<rect x="11" y="4" width="1" height="1" fill="#6ec900"/>
<rect x="12" y="4" width="1" height="1" fill="#7ad600"/>
<rect x="13" y="4" width="1" height="1" fill="#74c900"/>
<rect x="14" y="4" width="1" height="1" fill="#306500"/>
<rect x="15" y="4" width="1" height="1" fill="#0f4400"/>
<rect x="16" y="4" width="1" height="1" fill="#318900"/>
<rect x="17" y="4" width="1" height="1" fill="#4aa500"/>
<rect x="18" y="4" width="1" height="1" fill="#48a100"/>
<rect x="19" y="4" width="1" height="1" fill="#286c00"/>
<rect x="20" y="4" width="1" height="1" fill="#2e8500"/>
<rect x="21" y="4" width="1" height="1" fill="#277900"/>
<rect x="22" y="4" width="1" height="1" fill="#0f2900"/>
<rect x="23" y="4" width="1" height="1" fill="#0f2900"/>
<rect x="24" y="4" width="1" height="1" fill="#0f2900"/>
<rect x="9" y="5" width="1" height="1" fill="#0f2900"/>
<rect x="10" y="5" width="1" height="1" fill="#0f3900"/>
<rect x="11" y="5" width="1" height="1" fill="#6ec900"/>
<rect x="12" y="5" width="1" height="1" fill="#74ce00"/>
<rect x="13" y="5" width="1" height="1" fill="#79d500"/>
<rect x="14" y="5" width="1" height="1" fill="#407e00"/>
<rect x="15" y="5" width="1" height="1" fill="#144f00"/>
<rect x="16" y="5" width="1" height="1" fill="#2e8700"/>
<rect x="17" y="5" width="1" height="1" fill="#155000"/>
<rect x="18" y="5" width="1" height="1" fill="#155400"/>
<rect x="19" y="5" width="1" height="1" fill="#4d9c00"/>
<rect x="20" y="5" width="1" height="1" fill="#67c300"/>
<rect x="21" y="5" width="1" height="1" fill="#68c200"/>
<rect x="22" y="5" width="1" height="1" fill="#5eac00"/>
<rect x="23" y="5" width="1" height="1" fill="#5ca400"/>
<rect x="24" y="5" width="1" height="1" fill="#4c8901"/>
<rect x="25" y="5" width="1" height="1" fill="#122900"/>
<rect x="6" y="6" width="1" height="1" fill="#0f2900"/>
<rect x="7" y="6" width="1" height="1" fill="#0f2900"/>
<rect x="8" y="6" width="1" height="1" fill="#0f2900"/>
<rect x="9" y="6" width="1" height="1" fill="#0f2900"/>
<rect x="10" y="6" width="1" height="1" fill="#0f2900"/>
<rect x="11" y="6" width="1" height="1" fill="#4d9e00"/>
<rect x="12" y="6" width="1" height="1" fill="#65bc00"/>
<rect x="13" y="6" width="1" height="1" fill="#73cf00"/>
<rect x="14" y="6" width="1" height="1" fill="#3d7b00"/>
<rect x="15" y="6" width="1" height="1" fill="#0b4000"/>
<rect x="16" y="6" width="1" height="1" fill="#1c6600"/>
<rect x="17" y="6" width="1" height="1" fill="#124c00"/>
<rect x="18" y="6" width="1" height="1" fill="#367900"/>
<rect x="19" y="6" width="1" height="1" fill="#75d200"/>
<rect x="20" y="6" width="1" height="1" fill="#7cdb00"/>
<rect x="21" y="6" width="1" height="1" fill="#67c300"/>
<rect x="22" y="6" width="1" height="1" fill="#65c100"/>
<rect x="23" y="6" width="1" height="1" fill="#69c600"/>
<rect x="24" y="6" width="1" height="1" fill="#5ba800"/>
<rect x="25" y="6" width="1" height="1" fill="#122900"/>
<rect x="5" y="7" width="1" height="1" fill="#0f2900"/>
<rect x="6" y="7" width="1" height="1" fill="#216300"/>
<rect x="7" y="7" width="1" height="1" fill="#3d9800"/>
<rect x="8" y="7" width="1" height="1" fill="#4aa700"/>
<rect x="9" y="7" width="1" height="1" fill="#2c7b00"/>
<rect x="10" y="7" width="1" height="1" fill="#0f2900"/>
<rect x="11" y="7" width="1" height="1" fill="#0f2900"/>
<rect x="12" y="7" width="1" height="1" fill="#489a00"/>
<rect x="13" y="7" width="1" height="1" fill="#6eca00"/>
<rect x="14" y="7" width="1" height="1" fill="#3b7900"/>
<rect x="15" y="7" width="1" height="1" fill="#0f2900"/>
<rect x="16" y="7" width="1" height="1" fill="#0e4b00"/>
<rect x="17" y="7" width="1" height="1" fill="#2c8300"/>
<rect x="18" y="7" width="1" height="1" fill="#83e300"/>
<rect x="19" y="7" width="1" height="1" fill="#81e100"/>
<rect x="20" y="7" width="1" height="1" fill="#76d300"/>
<rect x="21" y="7" width="1" height="1" fill="#348f00"/>
<rect x="22" y="7" width="1" height="1" fill="#338d00"/>
<rect x="23" y="7" width="1" height="1" fill="#368d00"/>
<rect x="24" y="7" width="1" height="1" fill="#2f6f00"/>
<rect x="25" y="7" width="1" height="1" fill="#122900"/>
<rect x="5" y="8" width="1" height="1" fill="#0f2900"/>
<rect x="6" y="8" width="1" height="1" fill="#226600"/>
<rect x="7" y="8" width="1" height="1" fill="#379300"/>
<rect x="8" y="8" width="1" height="1" fill="#379200"/>
<rect x="9" y="8" width="1" height="1" fill="#359200"/>
<rect x="10" y="8" width="1" height="1" fill="#1d7200"/>
<rect x="11" y="8" width="1" height="1" fill="#0f2900"/>
<rect x="12" y="8" width="1" height="1" fill="#064300"/>
<rect x="13" y="8" width="1" height="1" fill="#1f7200"/>
<rect x="14" y="8" width="1" height="1" fill="#1b5b00"/>
<rect x="15" y="8" width="1" height="1" fill="#0f2900"/>
<rect x="16" y="8" width="1" height="1" fill="#247300"/>
<rect x="17" y="8" width="1" height="1" fill="#2c8400"/>
<rect x="18" y="8" width="1" height="1" fill="#7edd00"/>
<rect x="19" y="8" width="1" height="1" fill="#77d300"/>
<rect x="20" y="8" width="1" height="1" fill="#308a00"/>
<rect x="21" y="8" width="1" height="1" fill="#348e00"/>
<rect x="22" y="8" width="1" height="1" fill="#2a7a00"/>
<rect x="23" y="8" width="1" height="1" fill="#164d00"/>
<rect x="24" y="8" width="1" height="1" fill="#0f2900"/>
<rect x="5" y="9" width="1" height="1" fill="#0f2900"/>
<rect x="6" y="9" width="1" height="1" fill="#144a00"/>
<rect x="7" y="9" width="1" height="1" fill="#206f00"/>
<rect x="8" y="9" width="1" height="1" fill="#217200"/>
<rect x="9" y="9" width="1" height="1" fill="#207300"/>
<rect x="10" y="9" width="1" height="1" fill="#115e00"/>
<rect x="11" y="9" width="1" height="1" fill="#0f2900"/>
<rect x="12" y="9" width="1" height="1" fill="#0f2900"/>
<rect x="13" y="9" width="1" height="1" fill="#115100"/>
<rect x="14" y="9" width="1" height="1" fill="#0f4800"/>
<rect x="15" y="9" width="1" height="1" fill="#0f2900"/>
<rect x="16" y="9" width="1" height="1" fill="#247400"/>
<rect x="17" y="9" width="1" height="1" fill="#2d8600"/>
<rect x="18" y="9" width="1" height="1" fill="#59b200"/>
<rect x="19" y="9" width="1" height="1" fill="#499b00"/>
<rect x="20" y="9" width="1" height="1" fill="#1f6300"/>
<rect x="21" y="9" width="1" height="1" fill="#206200"/>
<rect x="22" y="9" width="1" height="1" fill="#144a00"/>
<rect x="23" y="9" width="1" height="1" fill="#0f2900"/>
<rect x="6" y="10" width="1" height="1" fill="#0f2900"/>
<rect x="7" y="10" width="1" height="1" fill="#0f2900"/>
<rect x="8" y="10" width="1" height="1" fill="#0f2900"/>
<rect x="9" y="10" width="1" height="1" fill="#0f2900"/>
<rect x="10" y="10" width="1" height="1" fill="#0f2900"/>
<rect x="11" y="10" width="1" height="1" fill="#122900"/>
<rect x="12" y="10" width="1" height="1" fill="#122900"/>
<rect x="13" y="10" width="1" height="1" fill="#0f2900"/>
<rect x="14" y="10" width="1" height="1" fill="#0f2900"/>
<rect x="15" y="10" width="1" height="1" fill="#0f2900"/>
<rect x="16" y="10" width="1" height="1" fill="#176500"/>
<rect x="17" y="10" width="1" height="1" fill="#1e7200"/>
<rect x="18" y="10" width="1" height="1" fill="#195900"/>
<rect x="19" y="10" width="1" height="1" fill="#0f2900"/>
<rect x="20" y="10" width="1" height="1" fill="#0f2900"/>
<rect x="21" y="10" width="1" height="1" fill="#0f2900"/>
<rect x="22" y="10" width="1" height="1" fill="#0f2900"/>
<rect x="7" y="11" width="1" height="1" fill="#321400"/>
<rect x="8" y="11" width="1" height="1" fill="#321400"/>
<rect x="9" y="11" width="1" height="1" fill="#321400"/>
<rect x="10" y="11" width="1" height="1" fill="#321400"/>
<rect x="11" y="11" width="1" height="1" fill="#321400"/>
<rect x="12" y="11" width="1" height="1" fill="#321400"/>
<rect x="13" y="11" width="1" height="1" fill="#321400"/>
<rect x="14" y="11" width="1" height="1" fill="#321400"/>
<rect x="15" y="11" width="1" height="1" fill="#122900"/>
<rect x="16" y="11" width="1" height="1" fill="#0f2900"/>
<rect x="17" y="11" width="1" height="1" fill="#0f2900"/>
<rect x="18" y="11" width="1" height="1" fill="#0f2900"/>
<rect x="19" y="11" width="1" height="1" fill="#0f2900"/>
<rect x="20" y="11" width="1" height="1" fill="#054800"/>
<rect x="21" y="11" width="1" height="1" fill="#074400"/>
<rect x="22" y="11" width="1" height="1" fill="#0f2900"/>
<rect x="23" y="11" width="1" height="1" fill="#0f2900"/>
<rect x="6" y="12" width="1" height="1" fill="#321400"/>
<rect x="7" y="12" width="1" height="1" fill="#630d00"/>
<rect x="8" y="12" width="1" height="1" fill="#7f1400"/>
<rect x="9" y="12" width="1" height="1" fill="#921a00"/>
<rect x="10" y="12" width="1" height="1" fill="#a72200"/>
<rect x="11" y="12" width="1" height="1" fill="#af2500"/>
<rect x="12" y="12" width="1" height="1" fill="#b22600"/>
<rect x="13" y="12" width="1" height="1" fill="#b02500"/>
<rect x="14" y="12" width="1" height="1" fill="#801900"/>
<rect x="15" y="12" width="1" height="1" fill="#341400"/>
<rect x="16" y="12" width="1" height="1" fill="#321400"/>
<rect x="17" y="12" width="1" height="1" fill="#321400"/>
<rect x="18" y="12" width="1" height="1" fill="#122900"/>
<rect x="19" y="12" width="1" height="1" fill="#0f2900"/>
<rect x="20" y="12" width="1" height="1" fill="#186a00"/>
<rect x="21" y="12" width="1" height="1" fill="#3a9800"/>
<rect x="22" y="12" width="1" height="1" fill="#389600"/>
<rect x="23" y="12" width="1" height="1" fill="#104300"/>
<rect x="24" y="12" width="1" height="1" fill="#0f2900"/>
<rect x="5" y="13" width="1" height="1" fill="#321400"/>
<rect x="6" y="13" width="1" height="1" fill="#831400"/>
<rect x="7" y="13" width="1" height="1" fill="#921700"/>
<rect x="8" y="13" width="1" height="1" fill="#991a00"/>
<rect x="9" y="13" width="1" height="1" fill="#ad2200"/>
<rect x="10" y="13" width="1" height="1" fill="#db4000"/>
<rect x="11" y="13" width="1" height="1" fill="#f95c00"/>
<rect x="12" y="13" width="1" height="1" fill="#fa5a01"/>
<rect x="13" y="13" width="1" height="1" fill="#f24d01"/>
<rect x="14" y="13" width="1" height="1" fill="#b82c01"/>
<rect x="15" y="13" width="1" height="1" fill="#7d1900"/>
<rect x="16" y="13" width="1" height="1" fill="#601300"/>
<rect x="17" y="13" width="1" height="1" fill="#400d00"/>
<rect x="18" y="13" width="1" height="1" fill="#321400"/>
<rect x="19" y="13" width="1" height="1" fill="#122900"/>
<rect x="20" y="13" width="1" height="1" fill="#0f2900"/>
<rect x="21" y="13" width="1" height="1" fill="#0f2900"/>
<rect x="22" y="13" width="1" height="1" fill="#0f2900"/>
<rect x="23" y="13" width="1" height="1" fill="#0f2900"/>
<rect x="24" y="13" width="1" height="1" fill="#122900"/>
<rect x="4" y="14" width="1" height="1" fill="#321400"/>
<rect x="5" y="14" width="1" height="1" fill="#b62300"/>
<rect x="6" y="14" width="1" height="1" fill="#c22800"/>
<rect x="7" y="14" width="1" height="1" fill="#ca2b00"/>
<rect x="8" y="14" width="1" height="1" fill="#fe5800"/>
<rect x="9" y="14" width="1" height="1" fill="#fe7700"/>
<rect x="10" y="14" width="1" height="1" fill="#ff9100"/>
<rect x="11" y="14" width="1" height="1" fill="#ffb20f"/>
<rect x="12" y="14" width="1" height="1" fill="#ffb610"/>
<rect x="13" y="14" width="1" height="1" fill="#ffb410"/>
<rect x="14" y="14" width="1" height="1" fill="#ffb40f"/>
<rect x="15" y="14" width="1" height="1" fill="#fe8e08"/>
<rect x="16" y="14" width="1" height="1" fill="#fe5200"/>
<rect x="17" y="14" width="1" height="1" fill="#dd3900"/>
<rect x="18" y="14" width="1" height="1" fill="#321400"/>
<rect x="19" y="14" width="1" height="1" fill="#321400"/>
<rect x="3" y="15" width="1" height="1" fill="#321400"/>
<rect x="4" y="15" width="1" height="1" fill="#450300"/>
<rect x="5" y="15" width="1" height="1" fill="#c22700"/>
<rect x="6" y="15" width="1" height="1" fill="#c62800"/>
<rect x="7" y="15" width="1" height="1" fill="#d73000"/>
<rect x="8" y="15" width="1" height="1" fill="#fe4d00"/>
<rect x="9" y="15" width="1" height="1" fill="#fe5f00"/>
<rect x="10" y="15" width="1" height="1" fill="#ff7f00"/>
<rect x="11" y="15" width="1" height="1" fill="#ff9c09"/>
<rect x="12" y="15" width="1" height="1" fill="#ffb611"/>
<rect x="13" y="15" width="1" height="1" fill="#ffb311"/>
<rect x="14" y="15" width="1" height="1" fill="#ffb110"/>
<rect x="15" y="15" width="1" height="1" fill="#ff8c09"/>
<rect x="16" y="15" width="1" height="1" fill="#ff5200"/>
<rect x="17" y="15" width="1" height="1" fill="#ef4200"/>
<rect x="18" y="15" width="1" height="1" fill="#961d00"/>
<rect x="19" y="15" width="1" height="1" fill="#321400"/>
<rect x="2" y="16" width="1" height="1" fill="#321400"/>
<rect x="3" y="16" width="1" height="1" fill="#4c0600"/>
<rect x="4" y="16" width="1" height="1" fill="#951c00"/>
<rect x="5" y="16" width="1" height="1" fill="#c52900"/>
<rect x="6" y="16" width="1" height="1" fill="#cc2b00"/>
<rect x="7" y="16" width="1" height="1" fill="#eb5800"/>
<rect x="8" y="16" width="1" height="1" fill="#fe6d00"/>
<rect x="9" y="16" width="1" height="1" fill="#ff6e00"/>
<rect x="10" y="16" width="1" height="1" fill="#ff7c00"/>
<rect x="11" y="16" width="1" height="1" fill="#ff8702"/>
<rect x="12" y="16" width="1" height="1" fill="#ff9106"/>
<rect x="13" y="16" width="1" height="1" fill="#ffa20b"/>
<rect x="14" y="16" width="1" height="1" fill="#ffb210"/>
<rect x="15" y="16" width="1" height="1" fill="#ff8c08"/>
<rect x="16" y="16" width="1" height="1" fill="#fe6400"/>
<rect x="17" y="16" width="1" height="1" fill="#f65800"/>
<rect x="18" y="16" width="1" height="1" fill="#b92600"/>
<rect x="19" y="16" width="1" height="1" fill="#321400"/>
<rect x="2" y="17" width="1" height="1" fill="#321400"/>
<rect x="3" y="17" width="1" height="1" fill="#560800"/>
<rect x="4" y="17" width="1" height="1" fill="#c82a00"/>
<rect x="5" y="17" width="1" height="1" fill="#c82900"/>
<rect x="6" y="17" width="1" height="1" fill="#cd2b00"/>
<rect x="7" y="17" width="1" height="1" fill="#f26c00"/>
<rect x="8" y="17" width="1" height="1" fill="#ff8100"/>
<rect x="9" y="17" width="1" height="1" fill="#ff8000"/>
<rect x="10" y="17" width="1" height="1" fill="#ff9807"/>
<rect x="11" y="17" width="1" height="1" fill="#ffac0e"/>
<rect x="12" y="17" width="1" height="1" fill="#ffa90d"/>
<rect x="13" y="17" width="1" height="1" fill="#ff9b08"/>
<rect x="14" y="17" width="1" height="1" fill="#ff7702"/>
<rect x="15" y="17" width="1" height="1" fill="#ff5701"/>
<rect x="16" y="17" width="1" height="1" fill="#ffffff"/>
<rect x="17" y="17" width="1" height="1" fill="#f45e00"/>
<rect x="18" y="17" width="1" height="1" fill="#b82700"/>
<rect x="19" y="17" width="1" height="1" fill="#321400"/>
<rect x="1" y="18" width="1" height="1" fill="#321400"/>
<rect x="2" y="18" width="1" height="1" fill="#5a0a00"/>
<rect x="3" y="18" width="1" height="1" fill="#a92200"/>
<rect x="4" y="18" width="1" height="1" fill="#c52900"/>
<rect x="5" y="18" width="1" height="1" fill="#df3300"/>
<rect x="6" y="18" width="1" height="1" fill="#e93600"/>
<rect x="7" y="18" width="1" height="1" fill="#f95500"/>
<rect x="8" y="18" width="1" height="1" fill="#ff7f00"/>
<rect x="9" y="18" width="1" height="1" fill="#ff8200"/>
<rect x="10" y="18" width="1" height="1" fill="#ffa00a"/>
<rect x="11" y="18" width="1" height="1" fill="#ffbc14"/>
<rect x="12" y="18" width="1" height="1" fill="#ffb912"/>
<rect x="13" y="18" width="1" height="1" fill="#fea00a"/>
<rect x="14" y="18" width="1" height="1" fill="#ff7c00"/>
<rect x="15" y="18" width="1" height="1" fill="#ffffff"/>
<rect x="16" y="18" width="1" height="1" fill="#ffffff"/>
<rect x="17" y="18" width="1" height="1" fill="#ffffff"/>
<rect x="18" y="18" width="1" height="1" fill="#f16200"/>
<rect x="19" y="18" width="1" height="1" fill="#321400"/>
<rect x="1" y="19" width="1" height="1" fill="#321400"/>
<rect x="2" y="19" width="1" height="1" fill="#620c00"/>
<rect x="3" y="19" width="1" height="1" fill="#c52900"/>
<rect x="4" y="19" width="1" height="1" fill="#c42800"/>
<rect x="5" y="19" width="1" height="1" fill="#ec3e00"/>
<rect x="6" y="19" width="1" height="1" fill="#fb5800"/>
<rect x="7" y="19" width="1" height="1" fill="#fe6100"/>
<rect x="8" y="19" width="1" height="1" fill="#ff5f00"/>
<rect x="9" y="19" width="1" height="1" fill="#ff8300"/>
<rect x="10" y="19" width="1" height="1" fill="#fea30a"/>
<rect x="11" y="19" width="1" height="1" fill="#ffbe14"/>
<rect x="12" y="19" width="1" height="1" fill="#ffba13"/>
<rect x="13" y="19" width="1" height="1" fill="#fe9f0a"/>
<rect x="14" y="19" width="1" height="1" fill="#ff7900"/>
<rect x="15" y="19" width="1" height="1" fill="#ff6200"/>
<rect x="16" y="19" width="1" height="1" fill="#ffffff"/>
<rect x="17" y="19" width="1" height="1" fill="#f24e00"/>
<rect x="18" y="19" width="1" height="1" fill="#be2a00"/>
<rect x="19" y="19" width="1" height="1" fill="#321400"/>
<rect x="1" y="20" width="1" height="1" fill="#321400"/>
<rect x="2" y="20" width="1" height="1" fill="#620c00"/>
<rect x="3" y="20" width="1" height="1" fill="#c42800"/>
<rect x="4" y="20" width="1" height="1" fill="#c72900"/>
<rect x="5" y="20" width="1" height="1" fill="#ee4000"/>
<rect x="6" y="20" width="1" height="1" fill="#ff6800"/>
<rect x="7" y="20" width="1" height="1" fill="#ff6900"/>
<rect x="8" y="20" width="1" height="1" fill="#ff5e00"/>
<rect x="9" y="20" width="1" height="1" fill="#ff7300"/>
<rect x="10" y="20" width="1" height="1" fill="#ffa50b"/>
<rect x="11" y="20" width="1" height="1" fill="#ffbd14"/>
<rect x="12" y="20" width="1" height="1" fill="#ffb813"/>
<rect x="13" y="20" width="1" height="1" fill="#ff9a0a"/>
<rect x="14" y="20" width="1" height="1" fill="#ff6200"/>
<rect x="15" y="20" width="1" height="1" fill="#fc4600"/>
<rect x="16" y="20" width="1" height="1" fill="#f44100"/>
<rect x="17" y="20" width="1" height="1" fill="#c32b00"/>
<rect x="18" y="20" width="1" height="1" fill="#321400"/>
<rect x="19" y="20" width="1" height="1" fill="#321400"/>
<rect x="1" y="21" width="1" height="1" fill="#321400"/>
<rect x="2" y="21" width="1" height="1" fill="#610c00"/>
<rect x="3" y="21" width="1" height="1" fill="#c92b00"/>
<rect x="4" y="21" width="1" height="1" fill="#ee3c00"/>
<rect x="5" y="21" width="1" height="1" fill="#f94500"/>
<rect x="6" y="21" width="1" height="1" fill="#ff6800"/>
<rect x="7" y="21" width="1" height="1" fill="#ff8605"/>
<rect x="8" y="21" width="1" height="1" fill="#ffb118"/>
<rect x="9" y="21" width="1" height="1" fill="#ffb719"/>
<rect x="10" y="21" width="1" height="1" fill="#ffac0f"/>
<rect x="11" y="21" width="1" height="1" fill="#ff7c04"/>
<rect x="12" y="21" width="1" height="1" fill="#ff6803"/>
<rect x="13" y="21" width="1" height="1" fill="#ff6801"/>
<rect x="14" y="21" width="1" height="1" fill="#ff5e00"/>
<rect x="15" y="21" width="1" height="1" fill="#eb3d00"/>
<rect x="16" y="21" width="1" height="1" fill="#cc2c00"/>
<rect x="17" y="21" width="1" height="1" fill="#b62600"/>
<rect x="18" y="21" width="1" height="1" fill="#321400"/>
<rect x="0" y="22" width="1" height="1" fill="#321400"/>
<rect x="1" y="22" width="1" height="1" fill="#321400"/>
<rect x="2" y="22" width="1" height="1" fill="#610c00"/>
<rect x="3" y="22" width="1" height="1" fill="#c42800"/>
<rect x="4" y="22" width="1" height="1" fill="#de3300"/>
<rect x="5" y="22" width="1" height="1" fill="#f33c00"/>
<rect x="6" y="22" width="1" height="1" fill="#fe6700"/>
<rect x="7" y="22" width="1" height="1" fill="#ff9407"/>
<rect x="8" y="22" width="1" height="1" fill="#fecc1f"/>
<rect x="9" y="22" width="1" height="1" fill="#ffca1d"/>
<rect x="10" y="22" width="1" height="1" fill="#ffab0e"/>
<rect x="11" y="22" width="1" height="1" fill="#ff6400"/>
<rect x="12" y="22" width="1" height="1" fill="#ff4e00"/>
<rect x="13" y="22" width="1" height="1" fill="#fd4b00"/>
<rect x="14" y="22" width="1" height="1" fill="#fb4700"/>
<rect x="15" y="22" width="1" height="1" fill="#e53800"/>
<rect x="16" y="22" width="1" height="1" fill="#c72a00"/>
<rect x="17" y="22" width="1" height="1" fill="#b02400"/>
<rect x="18" y="22" width="1" height="1" fill="#321400"/>
<rect x="0" y="23" width="1" height="1" fill="#321400"/>
<rect x="1" y="23" width="1" height="1" fill="#731200"/>
<rect x="2" y="23" width="1" height="1" fill="#c52c00"/>
<rect x="3" y="23" width="1" height="1" fill="#e83d00"/>
<rect x="4" y="23" width="1" height="1" fill="#f64b00"/>
<rect x="5" y="23" width="1" height="1" fill="#fe6e00"/>
<rect x="6" y="23" width="1" height="1" fill="#ff6f00"/>
<rect x="7" y="23" width="1" height="1" fill="#fe9908"/>
<rect x="8" y="23" width="1" height="1" fill="#ffc51a"/>
<rect x="9" y="23" width="1" height="1" fill="#fec51a"/>
<rect x="10" y="23" width="1" height="1" fill="#ffa70d"/>
<rect x="11" y="23" width="1" height="1" fill="#ff6000"/>
<rect x="12" y="23" width="1" height="1" fill="#e73d00"/>
<rect x="13" y="23" width="1" height="1" fill="#c52900"/>
<rect x="14" y="23" width="1" height="1" fill="#c12700"/>
<rect x="15" y="23" width="1" height="1" fill="#c22800"/>
<rect x="16" y="23" width="1" height="1" fill="#ad2300"/>
<rect x="17" y="23" width="1" height="1" fill="#321400"/>
<rect x="0" y="24" width="1" height="1" fill="#321400"/>
<rect x="1" y="24" width="1" height="1" fill="#7a1500"/>
<rect x="2" y="24" width="1" height="1" fill="#d83300"/>
<rect x="3" y="24" width="1" height="1" fill="#fe4800"/>
<rect x="4" y="24" width="1" height="1" fill="#fe5300"/>
<rect x="5" y="24" width="1" height="1" fill="#fe8105"/>
<rect x="6" y="24" width="1" height="1" fill="#ff940a"/>
<rect x="7" y="24" width="1" height="1" fill="#feaa10"/>
<rect x="8" y="24" width="1" height="1" fill="#fea70e"/>
<rect x="9" y="24" width="1" height="1" fill="#ffa40c"/>
<rect x="10" y="24" width="1" height="1" fill="#ff9206"/>
<rect x="11" y="24" width="1" height="1" fill="#ff6000"/>
<rect x="12" y="24" width="1" height="1" fill="#e84000"/>
<rect x="13" y="24" width="1" height="1" fill="#c12800"/>
<rect x="14" y="24" width="1" height="1" fill="#ae2100"/>
<rect x="15" y="24" width="1" height="1" fill="#8e1900"/>
<rect x="16" y="24" width="1" height="1" fill="#590b00"/>
<rect x="17" y="24" width="1" height="1" fill="#321400"/>
<rect x="0" y="25" width="1" height="1" fill="#321400"/>
<rect x="1" y="25" width="1" height="1" fill="#7a1500"/>
<rect x="2" y="25" width="1" height="1" fill="#d93200"/>
<rect x="3" y="25" width="1" height="1" fill="#fc4500"/>
<rect x="4" y="25" width="1" height="1" fill="#ff5a00"/>
<rect x="5" y="25" width="1" height="1" fill="#fe9c0d"/>
<rect x="6" y="25" width="1" height="1" fill="#ffbb17"/>
<rect x="7" y="25" width="1" height="1" fill="#ffba16"/>
<rect x="8" y="25" width="1" height="1" fill="#ff8803"/>
<rect x="9" y="25" width="1" height="1" fill="#ff7400"/>
<rect x="10" y="25" width="1" height="1" fill="#ff6700"/>
<rect x="11" y="25" width="1" height="1" fill="#fe5300"/>
<rect x="12" y="25" width="1" height="1" fill="#e63a00"/>
<rect x="13" y="25" width="1" height="1" fill="#bf2700"/>
<rect x="14" y="25" width="1" height="1" fill="#a51e00"/>
<rect x="15" y="25" width="1" height="1" fill="#791200"/>
<rect x="16" y="25" width="1" height="1" fill="#321400"/>
<rect x="0" y="26" width="1" height="1" fill="#321400"/>
<rect x="1" y="26" width="1" height="1" fill="#791500"/>
<rect x="2" y="26" width="1" height="1" fill="#d93300"/>
<rect x="3" y="26" width="1" height="1" fill="#fd4d00"/>
<rect x="4" y="26" width="1" height="1" fill="#ff6900"/>
<rect x="5" y="26" width="1" height="1" fill="#ff7e05"/>
<rect x="6" y="26" width="1" height="1" fill="#ffb816"/>
<rect x="7" y="26" width="1" height="1" fill="#ffb715"/>
<rect x="8" y="26" width="1" height="1" fill="#ff7503"/>
<rect x="9" y="26" width="1" height="1" fill="#fe5300"/>
<rect x="10" y="26" width="1" height="1" fill="#fb4300"/>
<rect x="11" y="26" width="1" height="1" fill="#e43600"/>
<rect x="12" y="26" width="1" height="1" fill="#d52f00"/>
<rect x="13" y="26" width="1" height="1" fill="#be2600"/>
<rect x="14" y="26" width="1" height="1" fill="#811500"/>
<rect x="15" y="26" width="1" height="1" fill="#480500"/>
<rect x="16" y="26" width="1" height="1" fill="#321400"/>
<rect x="0" y="27" width="1" height="1" fill="#321400"/>
<rect x="1" y="27" width="1" height="1" fill="#791500"/>
<rect x="2" y="27" width="1" height="1" fill="#d22e00"/>
<rect x="3" y="27" width="1" height="1" fill="#ee4400"/>
<rect x="4" y="27" width="1" height="1" fill="#ff7000"/>
<rect x="5" y="27" width="1" height="1" fill="#ff6800"/>
<rect x="6" y="27" width="1" height="1" fill="#ff8207"/>
<rect x="7" y="27" width="1" height="1" fill="#ff7f06"/>
<rect x="8" y="27" width="1" height="1" fill="#ff5a01"/>
<rect x="9" y="27" width="1" height="1" fill="#f64200"/>
<rect x="10" y="27" width="1" height="1" fill="#e23400"/>
<rect x="11" y="27" width="1" height="1" fill="#d12c00"/>
<rect x="12" y="27" width="1" height="1" fill="#cb2b00"/>
<rect x="13" y="27" width="1" height="1" fill="#991d00"/>
<rect x="14" y="27" width="1" height="1" fill="#500800"/>
<rect x="15" y="27" width="1" height="1" fill="#321400"/>
<rect x="0" y="28" width="1" height="1" fill="#321400"/>
<rect x="1" y="28" width="1" height="1" fill="#540a00"/>
<rect x="2" y="28" width="1" height="1" fill="#871800"/>
<rect x="3" y="28" width="1" height="1" fill="#d93300"/>
<rect x="4" y="28" width="1" height="1" fill="#ed4500"/>
<rect x="5" y="28" width="1" height="1" fill="#fe5000"/>
<rect x="6" y="28" width="1" height="1" fill="#fe5100"/>
<rect x="7" y="28" width="1" height="1" fill="#fb4f00"/>
<rect x="8" y="28" width="1" height="1" fill="#e23800"/>
<rect x="9" y="28" width="1" height="1" fill="#de3300"/>
<rect x="10" y="28" width="1" height="1" fill="#d02d00"/>
<rect x="11" y="28" width="1" height="1" fill="#ce2c00"/>
<rect x="12" y="28" width="1" height="1" fill="#a22000"/>
<rect x="13" y="28" width="1" height="1" fill="#510800"/>
<rect x="14" y="28" width="1" height="1" fill="#321400"/>
<rect x="1" y="29" width="1" height="1" fill="#321400"/>
<rect x="2" y="29" width="1" height="1" fill="#630c00"/>
<rect x="3" y="29" width="1" height="1" fill="#ca2b00"/>
<rect x="4" y="29" width="1" height="1" fill="#d93000"/>
<rect x="5" y="29" width="1" height="1" fill="#e33600"/>
<rect x="6" y="29" width="1" height="1" fill="#e33600"/>
<rect x="7" y="29" width="1" height="1" fill="#e23600"/>
<rect x="8" y="29" width="1" height="1" fill="#ce2c00"/>
<rect x="9" y="29" width="1" height="1" fill="#cb2b00"/>
<rect x="10" y="29" width="1" height="1" fill="#911800"/>
<rect x="11" y="29" width="1" height="1" fill="#5d0a00"/>
<rect x="12" y="29" width="1" height="1" fill="#321400"/>
<rect x="13" y="29" width="1" height="1" fill="#321400"/>
<rect x="1" y="30" width="1" height="1" fill="#321400"/>
<rect x="2" y="30" width="1" height="1" fill="#321400"/>
<rect x="3" y="30" width="1" height="1" fill="#640d00"/>
<rect x="4" y="30" width="1" height="1" fill="#cc2c00"/>
<rect x="5" y="30" width="1" height="1" fill="#ce2c00"/>
<rect x="6" y="30" width="1" height="1" fill="#cf2d00"/>
<rect x="7" y="30" width="1" height="1" fill="#ba2800"/>
<rect x="8" y="30" width="1" height="1" fill="#540600"/>
<rect x="9" y="30" width="1" height="1" fill="#520600"/>
<rect x="10" y="30" width="1" height="1" fill="#321400"/>
<rect x="11" y="30" width="1" height="1" fill="#321400"/>
<rect x="2" y="31" width="1" height="1" fill="#321400"/>
<rect x="3" y="31" width="1" height="1" fill="#321400"/>
<rect x="4" y="31" width="1" height="1" fill="#550800"/>
<rect x="5" y="31" width="1" height="1" fill="#570800"/>
<rect x="6" y="31" width="1" height="1" fill="#570800"/>
<rect x="7" y="31" width="1" height="1" fill="#510700"/>
<rect x="8" y="31" width="1" height="1" fill="#321400"/>
<rect x="9" y="31" width="1" height="1" fill="#321400"/>
<rect x="3" y="32" width="1" height="1" fill="#321400"/>
<rect x="4" y="32" width="1" height="1" fill="#321400"/>
<rect x="5" y="32" width="1" height="1" fill="#321400"/>
<rect x="6" y="32" width="1" height="1" fill="#321400"/>
<rect x="7" y="32" width="1" height="1" fill="#321400"/>
</svg>