<svg xmlns="http://www.w3.org/2000/svg" width="640" height="624" shape-rendering="crispEdges" viewBox="32 32 640 624"><path fill="#131e47" d="M304 32h96v16h-96zm0 16h128v16H304zm0 16h32v16h-32zm80 0h64v16h-64z"/><path fill="#c7673d" d="M336 64h48v16h-48z"/><path fill="#131e47" d="M256 80h128v32H256zm176 0h32v16h-32z"/><path fill="#c7673d" d="M384 80h48v32h-48z"/><path fill="#131e47" d="M432 96h48v16h-48zm0 320h48v32h-48zM256 112h16v32h-16zm128 0h32v16h-32zm64 0h48v16h-48z"/><path fill="#f7d596" d="M272 112h96v16h-96z"/><path fill="#ee8c34" d="M368 112h16v16h-16z"/><path fill="#c7673d" d="M416 112h32v32h-32z"/><path fill="#131e47" d="M448 128h64v16h-64z"/><path fill="#c7673d" d="M272 128h16v16h-16z"/><path fill="#ee8c34" d="M288 128h16v16h-16zm96 0h32v16h-32zm0 128h32v32h-32z"/><path fill="#f7d596" d="M304 128h80v16h-80z"/><path fill="#131e47" d="M256 144h48v16h-48zm0 112h48v32h-48zm224-112h112v16H480z"/><path fill="#f4af4c" d="M304 144h16v16h-16z"/><path fill="#f7d596" d="M320 144h96v16h-96z"/><path fill="#ee8c34" d="M416 144h16v16h-16z"/><path fill="#c7673d" d="M432 144h48v16h-48z"/><path fill="#131e47" d="M272 160h112v16H272zm208 0h128v16H480z"/><path fill="#f7d596" d="M384 160h48v16h-48z"/><path fill="#ee8c34" d="M432 160h16v16h-16z"/><path fill="#c7673d" d="M448 160h32v48h-32zm0 240h32v16h-32z"/><path fill="#131e47" d="M304 176h80v16h-80zm272 0h32v16h-32z"/><path fill="#f7d596" d="M384 176h64v16h-64z"/><path fill="#ee8c34" d="M480 176h96v16h-96zm0 224h96v16h-96z"/><path fill="#131e47" d="M368 192h80v16h-80zm240 0h32v32h-32z"/><path fill="#ee8c34" d="M480 192h128v16H480zm0 96h128v16H480z"/><path fill="#131e47" d="M416 208h32v16h-32z"/><path fill="#ee8c34" d="M448 208h160v16H448z"/><path fill="#131e47" d="M304 224h144v32H304zm240 0h32v32h-32zm80 0h48v16h-48z"/><path fill="#ee8c34" d="M448 224h64v32h-64zm128 0h48v16h-48z"/><path fill="#f7d596" d="M512 224h32v32h-32z"/><path fill="#131e47" d="M640 240h32v16h-32zm0 48h32v32h-32zm0 128h32v48h-32z"/><path fill="#ee8c34" d="M576 240h64v16h-64z"/><path fill="#131e47" d="M96 256h96v32H96zm560 0h16v32h-16z"/><path fill="#f4af4c" d="M304 256h80v32h-80z"/><path fill="#ee8c34" d="M448 256h208v32H448z"/><path fill="#f7d596" d="M416 256h32v32h-32z"/><path fill="#131e47" d="M80 288h32v64H80zm80 0h96v16h-96z"/><path fill="#f7d596" d="M112 288h48v16h-48zm0 48h48v16h-48zm320-48h48v16h-48zm176 0h32v32h-32zm0 160h32v16h-32z"/><path fill="#f4af4c" d="M256 288h48v16h-48z"/><path fill="#ee8c34" d="M304 288h128v16H304z"/><path fill="#131e47" d="M176 304h80v16h-80z"/><path fill="#f7d596" d="M112 304h64v16h-64zm336 0h64v16h-64z"/><path fill="#f4af4c" d="M256 304h16v16h-16z"/><path fill="#ee8c34" d="M272 304h176v16H272zm240 0h96v16h-96z"/><path fill="#131e47" d="M192 320h16v16h-16zm352 0h96v32h-96zm0 64h96v16h-96z"/><path fill="#f7d596" d="M112 320h80v16h-80zm336 0h96v16h-96z"/><path fill="#f4af4c" d="M208 320h48v16h-48z"/><path fill="#ee8c34" d="M256 320h192v16H256z"/><path fill="#131e47" d="M160 336h32v32h-32z"/><path fill="#f7d596" d="M480 336h64v16h-64z"/><path fill="#f4af4c" d="M192 336h32v16h-32z"/><path fill="#ee8c34" d="M224 336h256v16H224z"/><path fill="#131e47" d="M96 352h32v16H96zm0 144h32v16H96zm432-144h32v16h-32z"/><path fill="#f7d596" d="M128 352h32v16h-32zm384 0h16v16h-16z"/><path fill="#f4af4c" d="M192 352h16v16h-16z"/><path fill="#ee8c34" d="M208 352h304v16H208z"/><path fill="#131e47" d="M96 368h64v16H96zm0 112h64v16H96zm432-112h48v16h-48z"/><path fill="#f4af4c" d="M160 368h32v16h-32z"/><path fill="#ee8c34" d="M192 368h336v16H192z"/><path fill="#131e47" d="M128 384h32v96h-32zm0 192h32v32h-32z"/><path fill="#ee8c34" d="M160 384h224v16H160zm272 0h112v16H432z"/><path fill="#f7d596" d="M384 384h32v16h-32z"/><path fill="#f4af4c" d="M416 384h16v16h-16z"/><path fill="#131e47" d="M576 400h64v16h-64z"/><path fill="#ee8c34" d="M160 400h176v16H160z"/><path fill="#f7d596" d="M336 400h112v16H336z"/><path fill="#ee8c34" d="M160 416h144v32H160zm320 0h160v32H480z"/><path fill="#f7d596" d="M304 416h128v32H304z"/><path fill="#131e47" d="M272 448h32v32h-32zm64 0h96v32h-96zm144 0h96v16h-96z"/><path fill="#ee8c34" d="M160 448h112v32H160zm416 0h32v16h-32z"/><path fill="#f7d596" d="M304 448h32v32h-32z"/><path fill="#131e47" d="M480 464h192v16H480zm-208 16h64v32h-64zm288 0h96v16h-96z"/><path fill="#ee8c34" d="M160 480h96v16h-96z"/><path fill="#c7673d" d="M256 480h16v32h-16z"/><path fill="#ee8c34" d="M128 496h128v16H128z"/><path fill="#131e47" d="M64 512h48v32H64zm176 0h64v16h-64z"/><path fill="#ee8c34" d="M112 512h112v16H112z"/><path fill="#c7673d" d="M224 512h16v16h-16z"/><path fill="#131e47" d="M240 528h32v16h-32z"/><path fill="#ee8c34" d="M112 528h16v16h-16z"/><path fill="#c7673d" d="M128 528h112v16H128z"/><path fill="#131e47" d="M48 544h48v16H48zm80 0h112v32H128z"/><path fill="#ee8c34" d="M96 544h32v16H96z"/><path fill="#131e47" d="M48 560h16v16H48z"/><path fill="#ee8c34" d="M64 560h64v16H64z"/><path fill="#131e47" d="M32 576h32v48H32z"/><path fill="#f7d596" d="M64 576h32v48H64z"/><path fill="#ee8c34" d="M96 576h16v48H96z"/><path fill="#c7673d" d="M112 576h16v32h-16z"/><path fill="#131e47" d="M112 608h32v16h-32zm-80 16h96v16H32zm16 16h64v16H48z"/></svg>